<svg id="_50" data-name="50" xmlns="http://www.w3.org/2000/svg" viewBox="0 0 512 512"><defs><style>.cls-1{fill:#33db92;}.cls-2{fill:#e52e44;}.cls-3{fill:#fa4654;}.cls-4{fill:#fb626e;}</style></defs><title>50-heart-icons</title><circle class="cls-1" cx="256" cy="256" r="256"/><path class="cls-2" d="M409.05,283.21,273.89,418.36a25.28,25.28,0,0,1-35.78,0L126,306.21l-23-23A92,92,0,1,1,233,153.15l23,23,23-23A92,92,0,0,1,409.05,283.21Z"/><path class="cls-3" d="M409.05,283.21,299.56,392.7a25.29,25.29,0,0,1-35.79,0L151.61,280.54l-23-23a92,92,0,0,1-11.56-116,92,92,0,0,1,116,11.57l23,23,23-23A92,92,0,0,1,409.05,283.21Z"/><ellipse class="cls-4" cx="373.08" cy="169.49" rx="23.33" ry="38.57" transform="translate(14.73 368.23) rotate(-53.45)"/><ellipse class="cls-4" cx="409.8" cy="225.81" rx="14.74" ry="24.37" transform="translate(-28.72 62.63) rotate(-8.45)"/></svg>